<?xml version="1.0" encoding="utf-8"?>
<!-- Generator: Adobe Illustrator 22.0.1, SVG Export Plug-In . SVG Version: 6.00 Build 0)  -->
<svg version="1.1" id="Layer_1" xmlns="http://www.w3.org/2000/svg" xmlns:xlink="http://www.w3.org/1999/xlink" x="0px" y="0px"
	 viewBox="0 0 500 500" style="enable-background:new 0 0 500 500;" xml:space="preserve">
<style type="text/css">
	.st0{fill:#FFFFFF;}
</style>
<path class="st0" d="M109,316.4c0,0-0.6,24.8,41.9,21.8s46-25.4,46-25.4l-4.7-71.4l104.5,21l4.7,98.8c0,0,6.5,17.7,43.7,15.9
	c37.2-1.8,42.5-22.4,42.5-22.4l-4.1-81.4l18.9,4.7l47.8-58.4l-113.9-24.2l0.6-11.2l-42.5-8.3l17.1-16.5l-10-4.1l-7.7-9.4l-14.2-4.1
	l-29.9,5.9l-8.1-4.3l-19.3,17.9l-40.7-5.9l-8.9,8.3l-81.4-14.8l-53.7,52.5v7.1l68.7,18.1L109,316.4z"/>
</svg>
