<?xml version="1.0" encoding="utf-8"?>
<!-- Generator: Adobe Illustrator 22.0.1, SVG Export Plug-In . SVG Version: 6.00 Build 0)  -->
<svg version="1.1" id="Layer_1" xmlns="http://www.w3.org/2000/svg" xmlns:xlink="http://www.w3.org/1999/xlink" x="0px" y="0px"
	 viewBox="0 0 500 500" style="enable-background:new 0 0 500 500;" xml:space="preserve">
<style type="text/css">
	.st0{fill:#FFFFFF;}
</style>
<polygon class="st0" points="71.9,422 96.1,405 96.1,392.6 116,392.6 137.6,383.1 135,368.1 154.3,361.2 170.9,366.8 170.9,371.3 
	185,377.2 217.3,380.5 230.7,378.9 230.7,367.1 223.2,358.3 230.7,333.1 238.2,331.2 255.6,309.3 271.9,322.3 294.1,325.9 
	305.2,300.1 265.7,285.4 285.9,279.2 305.2,281.8 322.9,250.8 381,249.1 381,242.6 410.1,228.9 426.1,227.2 423.8,208.9 417,210.6 
	438.9,183.8 438.9,170.4 456.2,168.1 456.2,150.4 437.9,140 418,145.2 411.4,125.3 421.6,90.6 382.7,77.6 373.5,73 346.4,73 
	340.2,105.7 319,116.5 312.4,148.5 315,157 310.1,169.4 308.8,190.6 285.6,207 240.2,221.4 232,232.5 211.4,237 189.9,223 
	183,225.9 181.7,277.6 176.5,277.6 158.5,304.4 155.6,310.9 149.4,318.7 142.5,318.1 131.4,326.3 119.6,319.1 107.9,318.7 83,352.7 
	83,363.5 71.9,370 50.7,396.5 43.8,401.7 54.9,402.4 "/>
</svg>
