<?xml version="1.0" encoding="utf-8"?>
<!-- Generator: Adobe Illustrator 22.0.1, SVG Export Plug-In . SVG Version: 6.00 Build 0)  -->
<svg version="1.1" id="Layer_1" xmlns="http://www.w3.org/2000/svg" xmlns:xlink="http://www.w3.org/1999/xlink" x="0px" y="0px"
	 viewBox="0 0 108.8 55" style="enable-background:new 0 0 108.8 55;" xml:space="preserve">
<style type="text/css">
	.st0{fill:#FFFFFF;}
</style>
<g>
	<path class="st0" d="M36.5,17c-0.5-0.4-1.2-0.6-1.7-1.1c-2.8-2.9-7-1.8-10.2-3.5c-4.5-0.9-8.4,0.6-12.1,3c-3.2,2.5-6.1,5.1-6,9.7
		c0.1,2.9,1.5,4.2,4.4,4.3c3.3,0.1,5.6-1.8,7.8-3.8c4.9-1.2,9.8-2.1,14.8-2.1c0.5,0,1,0,1.5-0.1c1.5-0.3,3-0.9,3.3-2.6
		C38.8,19.1,37.8,17.9,36.5,17z"/>
	<path class="st0" d="M92.7,39.8c-0.7-0.6-1.6-1.2-2.5-1.5c-0.2-0.1-0.4-0.1-0.5-0.2c-0.5-0.1-0.9-0.1-1.3-0.1
		c-1.6,0.2-3.7,0.1-4.1,2.1c-0.5,2.4,2,2.2,3.3,2.9c1.3,0.7,2.7,1.2,4.3,1.1c1.3-0.1,2.2-0.7,2.2-2.2C93.9,41.3,93.4,40.5,92.7,39.8
		z"/>
	<path class="st0" d="M81.4,29.4c-1.1-0.3-1.9,0.5-2.5,1.3c-1.9,2.7,0.7,3.7,2.1,5.2c0.4,0.4,1.1,1,1.7,0.4c0.3-0.3,0.3-0.9,0.3-1
		c-0.2-1.5-0.3-2.7-0.4-3.8C82.4,30.6,82.3,29.7,81.4,29.4z"/>
</g>
</svg>
